<svg width="85" height="27" viewBox="0 0 85 27" fill="none" xmlns="http://www.w3.org/2000/svg">
<path d="M3.5368 11.328C3.5368 12.3093 3.60613 13.3013 3.7448 14.304C3.88346 15.3066 4.13946 16.2346 4.5128 17.088C4.88613 17.9306 5.41946 18.6133 6.1128 19.136C6.8168 19.648 7.7288 19.904 8.8488 19.904C9.95813 19.904 10.8595 19.648 11.5528 19.136C12.2568 18.6133 12.7901 17.9306 13.1528 17.088C13.5261 16.2346 13.7768 15.3066 13.9048 14.304C14.0435 13.3013 14.1128 12.3093 14.1128 11.328C14.1128 10.3466 14.0435 9.35464 13.9048 8.35197C13.7768 7.33864 13.5261 6.40531 13.1528 5.55197C12.7901 4.69864 12.2568 4.01597 11.5528 3.50397C10.8595 2.98131 9.95813 2.71997 8.8488 2.71997C7.7288 2.71997 6.8168 2.98131 6.1128 3.50397C5.41946 4.01597 4.88613 4.69864 4.5128 5.55197C4.13946 6.40531 3.88346 7.33864 3.7448 8.35197C3.60613 9.35464 3.5368 10.3466 3.5368 11.328ZM0.000797749 11.328C0.000797749 9.16264 0.310131 7.22664 0.928798 5.51997C1.54746 3.81331 2.50746 2.46931 3.8088 1.48797C5.11013 0.495972 6.79013 -2.86102e-05 8.8488 -2.86102e-05C10.9181 -2.86102e-05 12.5981 0.495972 13.8888 1.48797C15.1901 2.47997 16.1501 3.83464 16.7688 5.55197C17.3875 7.25864 17.6968 9.18931 17.6968 11.344C17.6968 12.624 17.5635 13.888 17.2968 15.136C17.0408 16.3733 16.6461 17.504 16.1128 18.528C15.5795 19.5413 14.8968 20.3573 14.0648 20.976C13.2435 21.5946 12.2675 21.9146 11.1368 21.936C10.8275 22.128 10.5128 22.2986 10.1928 22.448C9.88346 22.608 9.4728 22.688 8.9608 22.688C6.8488 22.688 5.13146 22.1973 3.8088 21.216C2.4968 20.224 1.53146 18.8746 0.912798 17.168C0.304798 15.4506 0.000797749 13.504 0.000797749 11.328ZM7.8568 21.6L11.3288 20.464L13.6168 22.112C14.2995 22.5813 14.8701 22.944 15.3288 23.2C15.7875 23.456 16.1981 23.632 16.5608 23.728C16.9235 23.8346 17.2915 23.888 17.6648 23.888C17.6328 24.72 17.3821 25.3386 16.9128 25.744C16.4435 26.16 15.9315 26.368 15.3768 26.368C14.8541 26.368 14.3955 26.288 14.0008 26.128C13.6168 25.968 13.2541 25.7546 12.9128 25.488L7.8568 21.6ZM24.343 4.81597C24.6204 4.76264 24.951 4.7253 25.335 4.70397C25.719 4.68264 26.055 4.67197 26.343 4.67197C26.599 4.67197 26.903 4.68264 27.255 4.70397C27.607 4.7253 27.927 4.76264 28.215 4.81597L34.535 22.112C34.279 22.24 33.9697 22.336 33.607 22.4C33.2444 22.464 32.9137 22.496 32.615 22.496C32.1564 22.496 31.767 22.4053 31.447 22.224C31.127 22.032 30.8604 21.6106 30.647 20.96L27.719 12.624C27.559 12.1653 27.3884 11.6373 27.207 11.04C27.0257 10.432 26.8444 9.82931 26.663 9.23197C26.4817 8.63464 26.3217 8.09064 26.183 7.59997H26.039C25.847 8.29331 25.623 9.06131 25.367 9.90397C25.111 10.7466 24.8924 11.4506 24.711 12.016L21.079 22.288C20.8764 22.3413 20.647 22.3786 20.391 22.4C20.135 22.4213 19.8844 22.432 19.639 22.432C19.351 22.432 19.063 22.4106 18.775 22.368C18.4977 22.3253 18.2684 22.272 18.087 22.208L17.959 22.032L24.343 4.81597ZM24.151 18.384C24.055 18.384 23.8737 18.384 23.607 18.384C23.3404 18.3733 23.0737 18.368 22.807 18.368C22.551 18.3573 22.3697 18.352 22.263 18.352H20.839L21.911 15.68H23.159C23.2657 15.68 23.431 15.68 23.655 15.68C23.8897 15.6693 24.119 15.664 24.343 15.664C24.5777 15.6533 24.743 15.648 24.839 15.648H27.527C27.6337 15.648 27.7884 15.6533 27.991 15.664C28.1937 15.664 28.3964 15.6693 28.599 15.68C28.8017 15.68 28.9564 15.68 29.063 15.68H30.391L31.383 18.352H29.895C29.799 18.352 29.6284 18.3573 29.383 18.368C29.1377 18.368 28.887 18.3733 28.631 18.384C28.3857 18.384 28.2204 18.384 28.135 18.384H24.151ZM45.4265 4.81597C45.6719 4.75197 45.9012 4.71464 46.1145 4.70397C46.3385 4.68264 46.5519 4.67197 46.7545 4.67197C46.9785 4.67197 47.2345 4.68797 47.5225 4.71997C47.8212 4.74131 48.1092 4.79464 48.3865 4.87997L48.5305 5.08797L42.8985 22.288C42.5359 22.3413 42.1199 22.3733 41.6505 22.384C41.1812 22.4053 40.7332 22.416 40.3065 22.416C39.7519 22.416 39.2772 22.3253 38.8825 22.144C38.4985 21.9626 38.2052 21.5466 38.0025 20.896L32.8985 5.03997C33.1972 4.90131 33.5119 4.79464 33.8425 4.71997C34.1839 4.6453 34.5305 4.60797 34.8825 4.60797C35.3412 4.60797 35.7199 4.71997 36.0185 4.94397C36.3172 5.16797 36.5625 5.58931 36.7545 6.20797L39.3945 14.4C39.6185 15.0933 39.8479 15.872 40.0825 16.736C40.3279 17.6 40.5465 18.448 40.7385 19.28C40.7812 19.44 40.8665 19.52 40.9945 19.52L45.4265 4.81597ZM47.2618 3.29597C47.2085 3.05064 47.1711 2.8053 47.1498 2.55997C47.1285 2.30397 47.1178 2.06931 47.1178 1.85597C47.1178 1.64264 47.1285 1.41331 47.1498 1.16797C47.1711 0.922639 47.2085 0.671972 47.2618 0.415972H61.9658C62.0298 0.607972 62.0778 0.826639 62.1098 1.07197C62.1418 1.31731 62.1578 1.54664 62.1578 1.75997C62.1578 2.31464 62.0031 2.70931 61.6938 2.94397C61.3845 3.17864 60.9045 3.29597 60.2538 3.29597H58.1578C57.9445 3.29597 57.6351 3.29064 57.2298 3.27997C56.8351 3.2693 56.5311 3.26397 56.3178 3.26397H52.9098C52.6858 3.26397 52.3765 3.2693 51.9818 3.27997C51.5871 3.29064 51.2831 3.29597 51.0698 3.29597H47.2618ZM52.9098 5.63197C52.9098 5.19464 52.9098 4.8053 52.9098 4.46397C52.9098 4.11197 52.9098 3.71197 52.9098 3.26397V1.85597H56.3018V3.26397C56.3018 3.71197 56.3018 4.11197 56.3018 4.46397C56.3125 4.8053 56.3178 5.19464 56.3178 5.63197V22.272C56.0511 22.3146 55.7631 22.3466 55.4538 22.368C55.1445 22.3893 54.8671 22.4 54.6218 22.4C54.3551 22.4 54.0671 22.3893 53.7578 22.368C53.4591 22.3466 53.1765 22.3146 52.9098 22.272V5.63197ZM63.0655 4.81597C63.3109 4.76264 63.5935 4.73064 63.9135 4.71997C64.2442 4.69864 64.5269 4.68797 64.7615 4.68797C65.0175 4.68797 65.2949 4.69864 65.5935 4.71997C65.8922 4.73064 66.1695 4.76264 66.4255 4.81597V22.272C66.1695 22.3146 65.8922 22.3466 65.5935 22.368C65.2949 22.3893 65.0175 22.4 64.7615 22.4C64.5269 22.4 64.2442 22.3893 63.9135 22.368C63.5935 22.3466 63.3109 22.3146 63.0655 22.272V4.81597ZM69.0743 5.32797C69.4796 5.05064 69.8796 4.86397 70.2743 4.76797C70.6796 4.6613 71.037 4.60797 71.3463 4.60797C71.8156 4.60797 72.205 4.71464 72.5143 4.92797C72.8236 5.14131 73.1383 5.47731 73.4583 5.93597L84.2423 21.728C83.8583 22.016 83.453 22.2133 83.0263 22.32C82.5996 22.4266 82.2316 22.48 81.9223 22.48C81.485 22.48 81.101 22.3786 80.7703 22.176C80.4396 21.9626 80.1196 21.6213 79.8103 21.152L69.0743 5.32797ZM80.2743 4.81597C80.477 4.76264 80.7063 4.7253 80.9623 4.70397C81.2183 4.68264 81.4743 4.67197 81.7303 4.67197C81.9863 4.67197 82.269 4.69331 82.5783 4.73597C82.8983 4.76797 83.1863 4.82664 83.4423 4.91197L83.5063 5.11997L77.6983 13.696L76.4823 14.944L71.6343 22.272C71.453 22.3146 71.2236 22.3466 70.9463 22.368C70.669 22.4 70.413 22.416 70.1783 22.416C69.485 22.416 68.9036 22.3306 68.4343 22.16L68.3223 21.952L74.7063 12.432L76.0183 11.12L80.2743 4.81597Z" fill="#0052CC"/>
</svg>
