<svg width="85" height="27" viewBox="0 0 85 27" fill="none" xmlns="http://www.w3.org/2000/svg">
<path d="M3.53607 11.328C3.53607 12.3093 3.6054 13.3013 3.74407 14.304C3.88273 15.3066 4.13873 16.2346 4.51207 17.088C4.8854 17.9306 5.41873 18.6133 6.11207 19.136C6.81607 19.648 7.72807 19.904 8.84807 19.904C9.9574 19.904 10.8587 19.648 11.5521 19.136C12.2561 18.6133 12.7894 17.9306 13.1521 17.088C13.5254 16.2346 13.7761 15.3066 13.9041 14.304C14.0427 13.3013 14.1121 12.3093 14.1121 11.328C14.1121 10.3466 14.0427 9.35464 13.9041 8.35197C13.7761 7.33864 13.5254 6.40531 13.1521 5.55197C12.7894 4.69864 12.2561 4.01597 11.5521 3.50397C10.8587 2.98131 9.9574 2.71997 8.84807 2.71997C7.72807 2.71997 6.81607 2.98131 6.11207 3.50397C5.41873 4.01597 4.8854 4.69864 4.51207 5.55197C4.13873 6.40531 3.88273 7.33864 3.74407 8.35197C3.6054 9.35464 3.53607 10.3466 3.53607 11.328ZM6.53267e-05 11.328C6.53267e-05 9.16264 0.309399 7.22664 0.928065 5.51997C1.54673 3.81331 2.50673 2.46931 3.80807 1.48797C5.1094 0.495972 6.7894 -2.86102e-05 8.84807 -2.86102e-05C10.9174 -2.86102e-05 12.5974 0.495972 13.8881 1.48797C15.1894 2.47997 16.1494 3.83464 16.7681 5.55197C17.3867 7.25864 17.6961 9.18931 17.6961 11.344C17.6961 12.624 17.5627 13.888 17.2961 15.136C17.0401 16.3733 16.6454 17.504 16.1121 18.528C15.5787 19.5413 14.8961 20.3573 14.0641 20.976C13.2427 21.5946 12.2667 21.9146 11.1361 21.936C10.8267 22.128 10.5121 22.2986 10.1921 22.448C9.88273 22.608 9.47207 22.688 8.96007 22.688C6.84807 22.688 5.13073 22.1973 3.80807 21.216C2.49607 20.224 1.53073 18.8746 0.912065 17.168C0.304065 15.4506 6.53267e-05 13.504 6.53267e-05 11.328ZM7.85607 21.6L11.3281 20.464L13.6161 22.112C14.2987 22.5813 14.8694 22.944 15.3281 23.2C15.7867 23.456 16.1974 23.632 16.5601 23.728C16.9227 23.8346 17.2907 23.888 17.6641 23.888C17.6321 24.72 17.3814 25.3386 16.9121 25.744C16.4427 26.16 15.9307 26.368 15.3761 26.368C14.8534 26.368 14.3947 26.288 14.0001 26.128C13.6161 25.968 13.2534 25.7546 12.9121 25.488L7.85607 21.6ZM24.3423 4.81597C24.6196 4.76264 24.9503 4.7253 25.3343 4.70397C25.7183 4.68264 26.0543 4.67197 26.3423 4.67197C26.5983 4.67197 26.9023 4.68264 27.2543 4.70397C27.6063 4.7253 27.9263 4.76264 28.2143 4.81597L34.5343 22.112C34.2783 22.24 33.969 22.336 33.6063 22.4C33.2436 22.464 32.913 22.496 32.6143 22.496C32.1556 22.496 31.7663 22.4053 31.4463 22.224C31.1263 22.032 30.8596 21.6106 30.6463 20.96L27.7183 12.624C27.5583 12.1653 27.3876 11.6373 27.2063 11.04C27.025 10.432 26.8436 9.82931 26.6623 9.23197C26.481 8.63464 26.321 8.09064 26.1823 7.59997H26.0383C25.8463 8.29331 25.6223 9.06131 25.3663 9.90397C25.1103 10.7466 24.8916 11.4506 24.7103 12.016L21.0783 22.288C20.8756 22.3413 20.6463 22.3786 20.3903 22.4C20.1343 22.4213 19.8836 22.432 19.6383 22.432C19.3503 22.432 19.0623 22.4106 18.7743 22.368C18.497 22.3253 18.2676 22.272 18.0863 22.208L17.9583 22.032L24.3423 4.81597ZM24.1503 18.384C24.0543 18.384 23.873 18.384 23.6063 18.384C23.3396 18.3733 23.073 18.368 22.8063 18.368C22.5503 18.3573 22.369 18.352 22.2623 18.352H20.8383L21.9103 15.68H23.1583C23.265 15.68 23.4303 15.68 23.6543 15.68C23.889 15.6693 24.1183 15.664 24.3423 15.664C24.577 15.6533 24.7423 15.648 24.8383 15.648H27.5263C27.633 15.648 27.7876 15.6533 27.9903 15.664C28.193 15.664 28.3956 15.6693 28.5983 15.68C28.801 15.68 28.9556 15.68 29.0623 15.68H30.3903L31.3823 18.352H29.8943C29.7983 18.352 29.6276 18.3573 29.3823 18.368C29.137 18.368 28.8863 18.3733 28.6303 18.384C28.385 18.384 28.2196 18.384 28.1343 18.384H24.1503ZM45.4258 4.81597C45.6711 4.75197 45.9005 4.71464 46.1138 4.70397C46.3378 4.68264 46.5511 4.67197 46.7538 4.67197C46.9778 4.67197 47.2338 4.68797 47.5218 4.71997C47.8205 4.74131 48.1085 4.79464 48.3858 4.87997L48.5298 5.08797L42.8978 22.288C42.5351 22.3413 42.1191 22.3733 41.6498 22.384C41.1805 22.4053 40.7325 22.416 40.3058 22.416C39.7511 22.416 39.2765 22.3253 38.8818 22.144C38.4978 21.9626 38.2045 21.5466 38.0018 20.896L32.8978 5.03997C33.1965 4.90131 33.5111 4.79464 33.8418 4.71997C34.1831 4.6453 34.5298 4.60797 34.8818 4.60797C35.3405 4.60797 35.7191 4.71997 36.0178 4.94397C36.3165 5.16797 36.5618 5.58931 36.7538 6.20797L39.3938 14.4C39.6178 15.0933 39.8471 15.872 40.0818 16.736C40.3271 17.6 40.5458 18.448 40.7378 19.28C40.7805 19.44 40.8658 19.52 40.9938 19.52L45.4258 4.81597ZM47.2611 3.29597C47.2077 3.05064 47.1704 2.8053 47.1491 2.55997C47.1277 2.30397 47.1171 2.06931 47.1171 1.85597C47.1171 1.64264 47.1277 1.41331 47.1491 1.16797C47.1704 0.922639 47.2077 0.671972 47.2611 0.415972H61.9651C62.0291 0.607972 62.0771 0.826639 62.1091 1.07197C62.1411 1.31731 62.1571 1.54664 62.1571 1.75997C62.1571 2.31464 62.0024 2.70931 61.6931 2.94397C61.3837 3.17864 60.9037 3.29597 60.2531 3.29597H58.1571C57.9437 3.29597 57.6344 3.29064 57.2291 3.27997C56.8344 3.2693 56.5304 3.26397 56.3171 3.26397H52.9091C52.6851 3.26397 52.3757 3.2693 51.9811 3.27997C51.5864 3.29064 51.2824 3.29597 51.0691 3.29597H47.2611ZM52.9091 5.63197C52.9091 5.19464 52.9091 4.8053 52.9091 4.46397C52.9091 4.11197 52.9091 3.71197 52.9091 3.26397V1.85597H56.3011V3.26397C56.3011 3.71197 56.3011 4.11197 56.3011 4.46397C56.3117 4.8053 56.3171 5.19464 56.3171 5.63197V22.272C56.0504 22.3146 55.7624 22.3466 55.4531 22.368C55.1437 22.3893 54.8664 22.4 54.6211 22.4C54.3544 22.4 54.0664 22.3893 53.7571 22.368C53.4584 22.3466 53.1757 22.3146 52.9091 22.272V5.63197ZM63.0648 4.81597C63.3101 4.76264 63.5928 4.73064 63.9128 4.71997C64.2435 4.69864 64.5261 4.68797 64.7608 4.68797C65.0168 4.68797 65.2941 4.69864 65.5928 4.71997C65.8915 4.73064 66.1688 4.76264 66.4248 4.81597V22.272C66.1688 22.3146 65.8915 22.3466 65.5928 22.368C65.2941 22.3893 65.0168 22.4 64.7608 22.4C64.5261 22.4 64.2435 22.3893 63.9128 22.368C63.5928 22.3466 63.3101 22.3146 63.0648 22.272V4.81597ZM69.0736 5.32797C69.4789 5.05064 69.8789 4.86397 70.2736 4.76797C70.6789 4.6613 71.0362 4.60797 71.3456 4.60797C71.8149 4.60797 72.2042 4.71464 72.5136 4.92797C72.8229 5.14131 73.1376 5.47731 73.4576 5.93597L84.2416 21.728C83.8576 22.016 83.4522 22.2133 83.0256 22.32C82.5989 22.4266 82.2309 22.48 81.9216 22.48C81.4842 22.48 81.1002 22.3786 80.7696 22.176C80.4389 21.9626 80.1189 21.6213 79.8096 21.152L69.0736 5.32797ZM80.2736 4.81597C80.4762 4.76264 80.7056 4.7253 80.9616 4.70397C81.2176 4.68264 81.4736 4.67197 81.7296 4.67197C81.9856 4.67197 82.2682 4.69331 82.5776 4.73597C82.8976 4.76797 83.1856 4.82664 83.4416 4.91197L83.5056 5.11997L77.6976 13.696L76.4816 14.944L71.6336 22.272C71.4522 22.3146 71.2229 22.3466 70.9456 22.368C70.6682 22.4 70.4122 22.416 70.1776 22.416C69.4842 22.416 68.9029 22.3306 68.4336 22.16L68.3216 21.952L74.7056 12.432L76.0176 11.12L80.2736 4.81597Z" fill="white"/>
</svg>
