<svg width="1439" height="251" viewBox="0 0 1439 251" fill="none" xmlns="http://www.w3.org/2000/svg">
<g clip-path="url(#clip0_1820_21909)">
<path d="M294.171 91.6687L303.039 92.7534L300.496 76.5565L291.628 75.4717L294.171 91.6687Z" fill="#B2FFD0"/>
<path d="M673.742 69.5601L682.328 69.7178L672.064 49.394L663.477 49.2363L673.742 69.5601Z" fill="#ECFCFF"/>
<path d="M331.541 198.799L322.473 196.812L323.174 206.852L332.242 208.838L331.541 198.799Z" fill="#DD57C4"/>
<path d="M1092.45 122.971L1100.31 124.948L1094.62 107.24L1086.76 105.263L1092.45 122.971Z" fill="#B2FFD0"/>
<path d="M1186.89 1.33397L1190.6 -7.27783L1176.48 -13.7649L1172.77 -5.15307L1186.89 1.33397Z" fill="#B2FFD0"/>
<path d="M1289.19 252.202L1284.21 248.51L1280.97 253.603L1285.96 257.296L1289.19 252.202Z" fill="#ECFCFF"/>
<path d="M272.447 204.526L270.34 199.352L257.156 198.887L259.263 204.061L272.447 204.526Z" fill="#ECFCFF"/>
<path d="M865.651 227.747L871.367 227.54L869.848 220.127L864.132 220.334L865.651 227.747Z" fill="#ECFCFF"/>
<path d="M1127.52 10.1929L1120.14 7.57471L1117.12 25.3084L1124.5 27.9266L1127.52 10.1929Z" fill="#ECFCFF"/>
<path d="M608.025 233.763L605.168 228.973L601.166 231.414L604.023 236.204L608.025 233.763Z" fill="#3E64FF"/>
<path d="M984.808 132.505L993.594 132.658L989.784 108.541L980.998 108.388L984.808 132.505Z" fill="#3E64FF"/>
<path d="M390.11 160.866L387.42 155.847L377.277 160.526L379.968 165.545L390.11 160.866Z" fill="#B2FFD0"/>
<path d="M1122.81 243.697L1129.51 244.52L1125.53 231.126L1118.83 230.303L1122.81 243.697Z" fill="#B2FFD0"/>
<path d="M1024.91 40.2425L1017.97 33.4136L1010.46 40.7869L1017.4 47.6158L1024.91 40.2425Z" fill="#DD57C4"/>
<path d="M89.1709 45.0003L88.1719 35.5142L65.3362 33.9324L66.3352 43.4185L89.1709 45.0003Z" fill="#ECFCFF"/>
<path d="M1293.46 58.2472L1297.77 56.8833L1288.9 42.3394L1284.59 43.7033L1293.46 58.2472Z" fill="#ECFCFF"/>
<path d="M1004.22 162.37L1006.25 157.748L998.994 153.233L996.964 157.856L1004.22 162.37Z" fill="#DD57C4"/>
<path d="M234.793 193.228L231.84 187.229L220.962 189.707L223.915 195.706L234.793 193.228Z" fill="#ECFCFF"/>
<path d="M351.536 41.7352L359.211 40.4751L355.92 31.0728L348.246 32.3329L351.536 41.7352Z" fill="#DD57C4"/>
<path d="M440.465 101.061L445.762 99.1479L443.292 93.592L437.996 95.5051L440.465 101.061Z" fill="#DD57C4"/>
<path d="M444.32 226.707L447.762 221.483L436.176 212.554L432.735 217.777L444.32 226.707Z" fill="#3E64FF"/>
<path d="M633.519 233.388L631.453 223.459L609.184 223.886L611.25 233.814L633.519 233.388Z" fill="#ECFCFF"/>
<path d="M1200.03 188.899L1205.96 189.515L1205.04 183.659L1199.11 183.044L1200.03 188.899Z" fill="#ECFCFF"/>
<path d="M994.33 178.207L997.025 173.887L984.737 165.87L982.041 170.191L994.33 178.207Z" fill="#3E64FF"/>
<path d="M313.672 31.3644L308.234 27.4854L303.764 34.0108L309.202 37.8899L313.672 31.3644Z" fill="#B2FFD0"/>
<path d="M68.2314 240.831L76.0117 238.503L70.3966 226.192L62.6162 228.521L68.2314 240.831Z" fill="#DD57C4"/>
<path d="M72.3674 95.7688L64.1426 90.8188L59.4258 101.215L67.6505 106.165L72.3674 95.7688Z" fill="#DD57C4"/>
<path d="M377.355 254.879L370.875 250.861L364.269 263.234L370.749 267.252L377.355 254.879Z" fill="#3E64FF"/>
<path d="M1142.03 188.503L1144.73 183.752L1127.24 170.086L1124.54 174.837L1142.03 188.503Z" fill="#ECFCFF"/>
<path d="M1090.66 88.3658L1097.37 83.0869L1091.22 74.806L1084.5 80.0849L1090.66 88.3658Z" fill="#DD57C4"/>
<path d="M431.755 170.052L433.098 163.426L422.501 162.07L421.158 168.696L431.755 170.052Z" fill="#B2FFD0"/>
<path d="M473.284 77.108L480.148 72.418L472.251 62.6552L465.387 67.3452L473.284 77.108Z" fill="#ECFCFF"/>
<path d="M163.699 24.044L171.078 21.0615L169.102 11.0133L161.723 13.9958L163.699 24.044Z" fill="#ECFCFF"/>
<path d="M1242.17 172.195L1237.31 166.27L1226.61 174.972L1231.47 180.898L1242.17 172.195Z" fill="#DD57C4"/>
<path d="M496.718 168.708L502.039 165.819L495.289 155.946L489.968 158.836L496.718 168.708Z" fill="#B2FFD0"/>
<path d="M756.567 39.4735L748.23 36.9102L743.716 50.8836L752.053 53.4469L756.567 39.4735Z" fill="#B2FFD0"/>
<path d="M202.293 -2.8953L197.588 -9.54102L183 -1.79369L187.705 4.85202L202.293 -2.8953Z" fill="#B2FFD0"/>
<path d="M388.056 20.2581L386.25 14.25L374.44 15.1429L376.245 21.1509L388.056 20.2581Z" fill="#3E64FF"/>
<path d="M811.274 124.965L803.566 120.817L799.972 136.191L807.679 140.339L811.274 124.965Z" fill="#ECFCFF"/>
<path d="M698.611 223.39L692 221.358L689.534 238.034L696.145 240.066L698.611 223.39Z" fill="#DD57C4"/>
<path d="M272.881 90.0598L265.613 89.043L264.238 102.066L271.506 103.083L272.881 90.0598Z" fill="#DD57C4"/>
<path d="M32.5273 -10.9119L24.3438 -15.0581L17.0138 3.13695L25.1974 7.28317L32.5273 -10.9119Z" fill="#B2FFD0"/>
<path d="M1170.34 43.4066L1163.73 38.4272L1155.96 51.1465L1162.57 56.1259L1170.34 43.4066Z" fill="#ECFCFF"/>
<path d="M1303.07 22.2744L1311.97 23.2188L1304.28 2.25449L1295.39 1.31015L1303.07 22.2744Z" fill="#B2FFD0"/>
<path d="M803.669 71.2108L804.82 63.8691L785.998 56.4401L784.847 63.7818L803.669 71.2108Z" fill="#DD57C4"/>
<path d="M143.142 -2.1019L139.004 -9.79395L127.733 -5.21268L131.872 2.47937L143.142 -2.1019Z" fill="#DD57C4"/>
<path d="M378.746 101.63L383.406 99.4639L378.958 89.509L374.298 91.6753L378.746 101.63Z" fill="#ECFCFF"/>
<path d="M328.495 62.9966L320.941 59.9663L323.662 73.7732L331.216 76.8035L328.495 62.9966Z" fill="#ECFCFF"/>
<path d="M419.454 32.6868L426.27 28.2739L420.174 16.5615L413.359 20.9744L419.454 32.6868Z" fill="#3E64FF"/>
<path d="M794.78 95.8128L804.314 97.5283L802.465 85.5542L792.931 83.8387L794.78 95.8128Z" fill="#B2FFD0"/>
<path d="M229.163 45.794L228.363 40.73L221.943 42.1139L222.743 47.1779L229.163 45.794Z" fill="#ECFCFF"/>
<path d="M1187.09 53.1871L1194.91 50.6797L1192.04 37.3501L1184.21 39.8575L1187.09 53.1871Z" fill="#ECFCFF"/>
<path d="M971.983 165.487L973.732 160.652L966.867 158.274L965.118 163.109L971.983 165.487Z" fill="#B2FFD0"/>
<path d="M244.69 191.233L246.215 182.333L227.119 175.501L225.594 184.401L244.69 191.233Z" fill="#ECFCFF"/>
<path d="M805.626 93.4836L813.719 88.6499L803.699 66.9405L795.606 71.7742L805.626 93.4836Z" fill="#ECFCFF"/>
<path d="M1118.78 223.67L1111.07 218.034L1106.25 225.31L1113.96 230.945L1118.78 223.67Z" fill="#3E64FF"/>
<path d="M342.766 216.616L335.207 213.986L330.021 229.265L337.58 231.895L342.766 216.616Z" fill="#ECFCFF"/>
<path d="M705.598 213.696L702.527 208.929L695.252 212.231L698.322 216.998L705.598 213.696Z" fill="#DD57C4"/>
<path d="M786.565 6.12363L783.811 1.38184L776.894 4.39235L779.648 9.13414L786.565 6.12363Z" fill="#3E64FF"/>
<path d="M1183.68 138.681L1175.56 135.08L1172.02 155.217L1180.14 158.818L1183.68 138.681Z" fill="#B2FFD0"/>
<path d="M938.39 53.8884L937.492 46.875L925.084 50.9805L925.981 57.9938L938.39 53.8884Z" fill="#3E64FF"/>
<path d="M934.365 173.423L926.621 167.22L917.787 183.296L925.531 189.499L934.365 173.423Z" fill="#DD57C4"/>
<path d="M792.836 110.926L788.191 108.121L785.764 113.893L790.409 116.698L792.836 110.926Z" fill="#DD57C4"/>
<path d="M544.148 261.311L545.363 252.502L517.022 241.037L515.806 249.847L544.148 261.311Z" fill="#B2FFD0"/>
<path d="M215.293 162.51L221.221 159.236L212.101 144.47L206.173 147.743L215.293 162.51Z" fill="#3E64FF"/>
<path d="M1245 54.4106L1241.16 50.4785L1237.74 53.7779L1241.58 57.7099L1245 54.4106Z" fill="#3E64FF"/>
<path d="M1436.38 116.047L1430.78 107.906L1423.07 112.797L1428.67 120.939L1436.38 116.047Z" fill="#3E64FF"/>
<path d="M696.085 8.97293L698.285 3.70654L689.804 -2.18548L687.604 3.08091L696.085 8.97293Z" fill="#ECFCFF"/>
<path d="M1213.88 178.361L1219.57 177.74L1218.46 170.363L1212.77 170.984L1213.88 178.361Z" fill="#DD57C4"/>
<path d="M1071.88 32.9574L1075.42 28.2217L1067.81 22.1241L1064.27 26.8598L1071.88 32.9574Z" fill="#DD57C4"/>
<path d="M429.321 97.6519L437.273 95.2969L433.828 76.3896L425.875 78.7446L429.321 97.6519Z" fill="#DD57C4"/>
<path d="M597.472 190.608L600.184 182.139L587.663 178.735L584.951 187.204L597.472 190.608Z" fill="#B2FFD0"/>
<path d="M1354.99 78.9381L1350.48 70.0205L1329.53 71.189L1334.04 80.1066L1354.99 78.9381Z" fill="#B2FFD0"/>
<path d="M1162.19 227.942L1171.32 227.771L1163.29 210.459L1154.16 210.629L1162.19 227.942Z" fill="#DD57C4"/>
<path d="M1048.05 70.5462L1045.37 64.3291L1038.67 66.7077L1041.36 72.9248L1048.05 70.5462Z" fill="#DD57C4"/>
<path d="M1245.67 161.527L1251.28 156.192L1233.46 136.614L1227.85 141.948L1245.67 161.527Z" fill="#ECFCFF"/>
<path d="M873.763 36.0462L868.307 31.5137L863.873 37.2185L869.33 41.751L873.763 36.0462Z" fill="#DD57C4"/>
<path d="M582.627 49.4003L591.598 45.5288L588.204 27.0073L579.233 30.8788L582.627 49.4003Z" fill="#3E64FF"/>
<path d="M704.257 116.551L700.238 111.038L688.488 120.145L692.506 125.658L704.257 116.551Z" fill="#DD57C4"/>
<path d="M1267.54 59.0004L1273.35 54.5986L1265.5 43.1917L1259.69 47.5935L1267.54 59.0004Z" fill="#DD57C4"/>
<path d="M540.932 113.507L535.656 106.506L526.905 113.101L532.181 120.101L540.932 113.507Z" fill="#ECFCFF"/>
<path d="M77.7665 63.1625L72.3477 54.9438L63.6766 59.5178L69.0955 67.7365L77.7665 63.1625Z" fill="#ECFCFF"/>
<path d="M656.899 48.3519L650.801 45.6577L647.153 55.0704L653.251 57.7646L656.899 48.3519Z" fill="#B2FFD0"/>
<path d="M760.807 10.7467L753.93 5.45117L743.611 18.9205L750.488 24.216L760.807 10.7467Z" fill="#3E64FF"/>
<path d="M183.333 182.807L174.104 181.48L169.325 201.086L178.554 202.413L183.333 182.807Z" fill="#B2FFD0"/>
<path d="M87.5762 259.436L90.6211 251.993L69.7563 239.909L66.7114 247.352L87.5762 259.436Z" fill="#B2FFD0"/>
<path d="M127.672 42.5393L121.904 34.2324L106.587 43.4415L112.355 51.7484L127.672 42.5393Z" fill="#DD57C4"/>
<path d="M1052.04 86.9437L1044.29 80.2261L1032.55 94.8251L1040.3 101.543L1052.04 86.9437Z" fill="#DD57C4"/>
<path d="M1343.23 225.026L1346.26 218.891L1329.25 206.828L1326.22 212.964L1343.23 225.026Z" fill="#DD57C4"/>
<path d="M381.643 154.563L382.062 148.582L367.22 142.694L366.8 148.675L381.643 154.563Z" fill="#ECFCFF"/>
<path d="M173.776 161.041L173.625 152.33L153.656 145.195L153.807 153.907L173.776 161.041Z" fill="#B2FFD0"/>
<path d="M921.294 80.4212L921.332 73.6904L904.215 72.4352L904.177 79.166L921.294 80.4212Z" fill="#3E64FF"/>
<path d="M622.881 96.0021L631.162 94.7549L627.354 82.1827L619.073 83.4299L622.881 96.0021Z" fill="#B2FFD0"/>
<path d="M790.975 0.279179L781.113 -1.54639L784.91 25.1842L794.771 27.0098L790.975 0.279179Z" fill="#DD57C4"/>
<path d="M1277.76 62.6667L1273.62 56.7002L1261.22 63.1921L1265.36 69.1587L1277.76 62.6667Z" fill="#DD57C4"/>
<path d="M1044.47 -6.70309L1039.47 -6.43213L1041.6 3.16937L1046.6 2.89841L1044.47 -6.70309Z" fill="#ECFCFF"/>
<path d="M1083.39 215.769L1080.63 208.328L1072.37 207.323L1075.13 214.764L1083.39 215.769Z" fill="#ECFCFF"/>
<path d="M1023.27 45.2628L1029.32 41.854L1021.71 32.55L1015.67 35.9588L1023.27 45.2628Z" fill="#ECFCFF"/>
<path d="M461.85 56.2221L460.059 50.9521H454.388L456.179 56.2221H461.85Z" fill="#B2FFD0"/>
<path d="M1349.05 73.1576L1341.75 71.2598L1339.33 90.3836L1346.62 92.2814L1349.05 73.1576Z" fill="#3E64FF"/>
<path d="M574.542 100.457L578.48 95.9707L562.849 82.0719L558.911 86.5583L574.542 100.457Z" fill="#DD57C4"/>
<path d="M467.612 142.444L470.148 138.102L458.274 130.449L455.737 134.791L467.612 142.444Z" fill="#3E64FF"/>
<path d="M889.112 105.739L898.488 104.741L896.641 89.4006L887.265 90.3986L889.112 105.739Z" fill="#B2FFD0"/>
<path d="M1026.18 134.89L1033.79 133.876L1029.61 113.61L1022 114.624L1026.18 134.89Z" fill="#3E64FF"/>
<path d="M777.074 38.9398L779.281 31.8311L757.178 18.8855L754.971 25.9942L777.074 38.9398Z" fill="#3E64FF"/>
<path d="M1243.58 159.939L1250.13 159.48L1249.24 149.272L1242.69 149.731L1243.58 159.939Z" fill="#B2FFD0"/>
<path d="M39.3293 66.2867L34.9766 59.8926L17.321 73.0629L21.6737 79.457L39.3293 66.2867Z" fill="#ECFCFF"/>
<path d="M1190.92 103.438L1182 101.616L1175.36 118.92L1184.28 120.742L1190.92 103.438Z" fill="#B2FFD0"/>
</g>
<defs>
<clipPath id="clip0_1820_21909">
<rect width="1439" height="365" fill="white" transform="translate(0 -114)"/>
</clipPath>
</defs>
</svg>
