<svg width="375" height="251" viewBox="0 0 375 251" fill="none" xmlns="http://www.w3.org/2000/svg">
<g clip-path="url(#clip0_1838_16145)">
<path d="M141.742 69.5601L150.328 69.7178L140.064 49.394L131.477 49.2363L141.742 69.5601Z" fill="#ECFCFF"/>
<path d="M333.651 227.747L339.367 227.54L337.848 220.127L332.132 220.334L333.651 227.747Z" fill="#ECFCFF"/>
<path d="M76.0249 233.763L73.168 228.973L69.1657 231.414L72.0226 236.204L76.0249 233.763Z" fill="#3E64FF"/>
<path d="M101.519 233.388L99.4531 223.459L77.1845 223.886L79.2503 233.814L101.519 233.388Z" fill="#ECFCFF"/>
<path d="M224.567 39.4735L216.23 36.9102L211.716 50.8836L220.053 53.4469L224.567 39.4735Z" fill="#B2FFD0"/>
<path d="M279.274 124.965L271.566 120.817L267.972 136.191L275.679 140.339L279.274 124.965Z" fill="#ECFCFF"/>
<path d="M166.611 223.389L160 221.357L157.534 238.033L164.145 240.065L166.611 223.389Z" fill="#DD57C4"/>
<path d="M271.669 71.2108L272.82 63.8691L253.998 56.4401L252.847 63.7818L271.669 71.2108Z" fill="#DD57C4"/>
<path d="M262.78 95.8128L272.314 97.5283L270.465 85.5542L260.931 83.8387L262.78 95.8128Z" fill="#B2FFD0"/>
<path d="M273.626 93.4841L281.719 88.6504L271.699 66.941L263.606 71.7747L273.626 93.4841Z" fill="#ECFCFF"/>
<path d="M173.598 213.697L170.527 208.93L163.252 212.232L166.322 216.999L173.598 213.697Z" fill="#DD57C4"/>
<path d="M254.565 6.12363L251.811 1.38184L244.894 4.39235L247.648 9.13414L254.565 6.12363Z" fill="#3E64FF"/>
<path d="M260.836 110.926L256.191 108.121L253.764 113.893L258.409 116.698L260.836 110.926Z" fill="#DD57C4"/>
<path d="M12.1476 261.311L13.3633 252.502L-14.978 241.037L-16.1937 249.847L12.1476 261.311Z" fill="#B2FFD0"/>
<path d="M164.085 8.97341L166.285 3.70703L157.804 -2.18499L155.604 3.08139L164.085 8.97341Z" fill="#ECFCFF"/>
<path d="M65.4717 190.607L68.1836 182.139L55.6631 178.735L52.9513 187.203L65.4717 190.607Z" fill="#B2FFD0"/>
<path d="M341.763 36.0462L336.307 31.5137L331.873 37.2185L337.33 41.751L341.763 36.0462Z" fill="#DD57C4"/>
<path d="M50.6267 49.4008L59.5977 45.5293L56.2044 27.0078L47.2335 30.8793L50.6267 49.4008Z" fill="#3E64FF"/>
<path d="M172.257 116.551L168.238 111.037L156.488 120.144L160.506 125.658L172.257 116.551Z" fill="#DD57C4"/>
<path d="M8.93164 113.507L3.65625 106.506L-5.0946 113.1L0.180792 120.101L8.93164 113.507Z" fill="#ECFCFF"/>
<path d="M124.899 48.3524L118.801 45.6582L115.153 55.0709L121.251 57.7651L124.899 48.3524Z" fill="#B2FFD0"/>
<path d="M228.807 10.7467L221.93 5.45117L211.611 18.9205L218.488 24.216L228.807 10.7467Z" fill="#3E64FF"/>
<path d="M389.294 80.4212L389.332 73.6904L372.215 72.4352L372.177 79.166L389.294 80.4212Z" fill="#3E64FF"/>
<path d="M90.8814 96.0021L99.1621 94.7549L95.3538 82.1827L87.0731 83.4299L90.8814 96.0021Z" fill="#B2FFD0"/>
<path d="M258.975 0.27869L249.113 -1.54688L252.91 25.1837L262.771 27.0093L258.975 0.27869Z" fill="#DD57C4"/>
<path d="M42.5423 100.457L46.4805 95.9707L30.8494 82.0719L26.9112 86.5583L42.5423 100.457Z" fill="#DD57C4"/>
<path d="M357.112 105.738L366.488 104.74L364.641 89.4001L355.265 90.3981L357.112 105.738Z" fill="#B2FFD0"/>
<path d="M245.074 38.9398L247.281 31.8311L225.178 18.8855L222.971 25.9942L245.074 38.9398Z" fill="#3E64FF"/>
</g>
<defs>
<clipPath id="clip0_1838_16145">
<rect width="1439" height="365" fill="white" transform="translate(-532 -114)"/>
</clipPath>
</defs>
</svg>
