<svg width="240" height="210" viewBox="0 0 240 210" fill="none" xmlns="http://www.w3.org/2000/svg">
<circle cx="126.315" cy="119.098" r="90.2256" fill="#E6EEFA"/>
<ellipse opacity="0.4" cx="126.315" cy="120.002" rx="70.3759" ry="67.6692" fill="#C2D5F3"/>
<path d="M126.31 83.0049C115.454 83.0049 108.416 90.2918 100.091 92.9478C96.7064 94.0277 95.014 94.5677 94.3291 95.3289C93.6442 96.0901 93.4436 97.2024 93.0425 99.4271C88.7501 123.233 98.132 145.241 120.507 153.808C122.911 154.728 124.113 155.188 126.322 155.188C128.531 155.188 129.733 154.728 132.137 153.808C154.51 145.241 163.883 123.233 159.589 99.427C159.188 97.202 158.987 96.0895 158.302 95.3283C157.617 94.5671 155.925 94.0274 152.54 92.9481C144.213 90.2923 137.166 83.0049 126.31 83.0049Z" stroke="#0052CC" stroke-width="4" stroke-linecap="round" stroke-linejoin="round"/>
<path d="M119.098 120.901C119.098 120.901 120.902 120.901 122.707 124.51C122.707 124.51 128.439 115.487 133.534 113.683" stroke="#3D4149" stroke-width="4" stroke-linecap="round" stroke-linejoin="round"/>
<circle cx="225.565" cy="180.453" r="14.4361" fill="#E6EEFA"/>
<circle cx="10.8271" cy="110.076" r="10.8271" fill="#E6EEFA"/>
<circle cx="194.888" cy="7.21804" r="7.21804" fill="#E6EEFA"/>
</svg>
