<svg width="240" height="210" viewBox="0 0 240 210" fill="none" xmlns="http://www.w3.org/2000/svg">
<circle cx="126.315" cy="119.098" r="90.2256" fill="#FFFBEB"/>
<ellipse opacity="0.4" cx="126.313" cy="120.003" rx="70.3759" ry="67.6692" fill="#FFE8A3"/>
<path d="M144.362 87.8348C139.054 84.7641 132.89 83.0066 126.317 83.0066C106.385 83.0066 90.2266 99.1647 90.2266 119.097C90.2266 139.029 106.385 155.187 126.317 155.187C146.249 155.187 162.407 139.029 162.407 119.097C162.407 116.625 162.158 114.211 161.685 111.879" stroke="#BF6A02" stroke-width="4" stroke-linecap="round"/>
<path d="M111.879 120.902C111.879 120.902 117.292 120.902 124.51 133.533C124.51 133.533 144.572 100.451 162.405 93.834" stroke="#3D4149" stroke-width="4.33083" stroke-linecap="round" stroke-linejoin="round"/>
<circle cx="225.565" cy="180.453" r="14.4361" fill="#FFF1C2"/>
<circle cx="10.8271" cy="110.076" r="10.8271" fill="#FFF1C2"/>
<circle cx="194.89" cy="7.21804" r="7.21804" fill="#FFF1C2"/>
</svg>
