<svg width="240" height="210" viewBox="0 0 240 210" fill="none" xmlns="http://www.w3.org/2000/svg">
<circle cx="126.315" cy="119.098" r="90.2256" fill="#FEE9E7"/>
<ellipse opacity="0.4" cx="126.313" cy="120.003" rx="70.3759" ry="67.6692" fill="#FDD3D0"/>
<path d="M144.362 87.8348C139.054 84.7641 132.89 83.0066 126.317 83.0066C106.385 83.0066 90.2266 99.1647 90.2266 119.097C90.2266 139.029 106.385 155.187 126.317 155.187C146.249 155.187 162.407 139.029 162.407 119.097C162.407 116.625 162.158 114.211 161.685 111.879" stroke="#EC221F" stroke-width="4" stroke-linecap="round"/>
<path d="M141.831 106.902C142.723 106.01 142.723 104.563 141.831 103.67C140.938 102.777 139.491 102.777 138.598 103.67L126.5 115.768L114.402 103.67C113.509 102.777 112.062 102.777 111.169 103.67C110.277 104.563 110.277 106.01 111.169 106.902L123.268 119L111.169 131.099C110.277 131.991 110.277 133.438 111.169 134.331C112.062 135.224 113.509 135.224 114.402 134.331L126.5 122.233L138.598 134.331C139.491 135.224 140.938 135.224 141.831 134.331C142.723 133.438 142.723 131.991 141.831 131.099L129.732 119L141.831 106.902Z" fill="#3D4149"/>
<circle cx="225.565" cy="180.453" r="14.4361" fill="#FEE9E7"/>
<circle cx="10.8271" cy="110.076" r="10.8271" fill="#FEE9E7"/>
<circle cx="194.89" cy="7.21804" r="7.21804" fill="#FEE9E7"/>
</svg>
